<svg width="629" height="766" viewBox="0 0 629 766" fill="none" xmlns="http://www.w3.org/2000/svg">
<g filter="url(#filter0_d_90_20)">
<path d="M192.322 674.554L192.478 673.554C194.264 675.514 192.948 734.616 193.364 743.576C193.432 745.04 193.246 748.804 194.706 749.088L196.226 748.232C199.164 749.342 199.898 755.524 203.434 754.698C210.566 747.316 202.158 691.608 206.252 679.292C207.044 691.118 206.248 703.6 206.246 715.492C206.244 723.042 210.618 757.002 199.622 757.456C188.48 757.914 192.348 730.996 192.358 724.71L192.322 674.554Z" fill="#8B5CF6"/>
<path d="M230.168 49.299C239.512 48.0114 242.78 57.8422 224.574 66.0582C215.53 67.4734 206.154 54.4574 230.168 49.299Z" fill="#DB2777"/>
<path d="M343.76 647.452C356.082 647.964 354.99 670.15 346.59 674.554C334.734 674.378 333.82 652.058 343.76 647.452Z" fill="#8B5CF6"/>
<path d="M343.76 690.04C356.732 689.708 355.716 715.796 346.59 719.294C333.77 720.218 334.29 693.386 343.76 690.04Z" fill="#8B5CF6"/>
<path d="M305.472 34.2658C331.534 33.2072 421.2 46.298 433.17 66.4884C435.748 70.8398 430.168 76.4918 425.672 75.5038C418.086 73.8378 401.628 65.2566 392.238 61.9758C346.58 46.4942 309.526 43.3668 262.196 53.9044C233.166 38.4628 299.932 34.5054 305.472 34.2658Z" fill="#DB2777"/>
<path d="M518.014 47.5086C506.666 20.5736 527.914 -6.47575 554.692 2.01225C581.69 10.5696 583.586 48.1058 558.738 60.0718C547.576 65.4472 538.596 61.6182 527.588 58.5742C504.888 69.046 488.94 87.4 476.322 108.472C472.78 116.242 468.87 123.832 465.432 131.654C495.624 155.98 513.722 188.756 530.036 223.048C522.94 218.748 515.468 189.436 510.864 190.08L501.894 175.98C502.214 175.366 499.662 170.548 499.076 169.794L497.15 168.976C491.912 161.216 488.312 164.592 484.12 168.56L484.158 169.242C479.082 161.352 452.466 131.37 443.992 130.178L443.266 129.722C434.058 123.888 425.802 117.172 416.152 111.914C302.146 49.787 171.69 100.49 117.612 213.816C110.846 217.248 110.208 236.634 105.462 242.65C104.936 241.27 103.574 213.698 104.106 211.954C105.454 207.532 109.782 201.588 111.6 196.616L111.184 195.774C119.878 173.298 145.048 146.61 161.782 130.178C149.092 98.0021 129.82 77.304 101.202 58.5742C59.016 80.35 33.13 22.966 69.478 4.61304C96.66 -9.11116 122.186 15.8412 111.184 47.5086C136.268 62.1554 162.858 95.246 172.982 121.744C245.534 52.9682 380.222 57.3696 454.596 121.744C467.994 89.408 487.906 65.6428 518.014 47.5086ZM81.0799 15.1256C54.5599 20.36 66.686 55.8376 84.238 49.2992C110.86 46.312 102.42 11.8252 81.0799 15.1256ZM544.428 15.1256C522.256 18.0896 522.248 48.5776 546.166 49.2992C570.882 44.1968 564.368 11.5616 544.428 15.1256Z" fill="#DB2777"/>
<path d="M443.992 130.178C452.466 131.37 479.082 161.352 484.158 169.242L484.12 168.56C488.312 164.592 491.912 161.216 497.15 168.976L499.076 169.794C499.662 170.548 502.214 175.366 501.894 175.98L510.864 190.08C515.468 189.436 522.94 218.748 530.036 223.048L530.136 223.798C531.136 230.766 533.822 237.782 535.756 244.564C565.512 348.99 513.156 459.116 418.44 510.908C408.352 516.426 398.048 522.136 386.416 523.29V545.014C430.366 545.01 466.79 545.372 488.13 592.996C494.176 578.876 509.75 548.27 518.014 536.8C514.816 528.472 504.238 501.594 503.21 493.808C500.728 474.984 524.102 463.688 539.494 471.246C548.976 475.902 552.168 486.362 556.008 495.414C562.494 481.33 568.048 463.086 583.922 457.132C599.728 451.202 617.492 459.966 622.948 475.836C628.022 490.6 618.45 505.574 612.938 518.738L565.842 630.192C561.626 640.252 558.162 650.878 553.172 660.574C529.95 705.684 468.974 713.75 434.654 677.374L434.676 728.952C434.682 734.302 438.752 761.93 426.544 757.49C417.932 755.316 421.316 735.712 421.316 729.186L421.36 685.902C420.302 681.28 421.46 670.094 421.47 664.94C421.482 658.59 417.982 640.678 427.124 639.206C433.322 638.208 434.558 649.822 435.826 653.624C449.1 693.462 511.368 698.914 537.23 661.122C543.97 651.272 547.726 639.254 552.58 628.392C567.59 594.802 581.396 560.764 595.224 526.678C600.174 514.47 606.708 502.464 610.844 490.006C616.296 473.588 594.054 460.452 582.542 472.87C574.33 481.726 569.134 509.604 556.784 512.086C542.146 515.03 544.054 489.782 535.06 483.97C530.352 480.928 521.27 482.65 518.428 487.652C513.464 496.388 528.976 526.722 531.642 536.8C528.722 547.184 516.142 567.784 510.594 578.68C506.514 586.694 501.122 606.242 490.67 607.95C473.534 610.75 469.882 564.792 426.536 558.956C417.322 557.714 379.388 560.54 374.956 556.138C371.678 552.88 372.928 534.076 372.968 529.446C324.47 539.884 301.752 537.994 255.482 529.446C255.284 570.116 256.89 556.14 223.498 557.062C194.958 557.85 167.408 573.68 151.384 597.138C148.194 601.804 141.592 617.114 133.556 613.672C130.576 612.394 97.406 543.118 94.206 534.73C99.116 521.298 122.53 490.014 99.738 484.326C83.952 480.388 82.994 506.86 72.278 512.766C58.12 520.568 52.022 474.428 37.404 469.972C26.504 466.65 19 474.448 16.376 484.298C20.694 502.246 42.204 545.522 50.302 564.656L77.944 629.242C81.528 637.71 83.874 646.968 88.266 655.042C110.288 695.522 170.856 694.236 189.656 651.768C191.818 646.884 192.906 640.148 196.294 636.038C199.48 632.17 205.41 634.258 206.172 638.896C206.886 643.234 206.366 648.112 206.352 652.524L206.252 679.292C202.158 691.608 210.566 747.316 203.434 754.698C199.898 755.524 199.164 749.342 196.226 748.232L194.706 749.088C193.246 748.804 193.432 745.04 193.364 743.576C192.948 734.616 194.264 675.514 192.478 673.554L192.322 674.554C184.314 681.37 176.65 687.804 167.004 692.244C130.514 709.04 89.966 691.812 73.64 655.768C68.144 643.632 63.272 631.226 58.12 618.944L29.728 551.934C21.768 533.364 -1.19119 491.444 5.57001 474.336C11.554 459.194 28.632 451.118 43.888 457.44C57.738 463.178 63.598 482.586 69.02 495.414C73.448 486.898 77.182 477.31 86.368 472.904C103.73 464.576 125.242 479.194 123.408 498.63C122.484 508.42 113.064 524.834 109.166 534.73C118.946 553.994 127.672 573.798 137.554 592.996C161.278 558.35 199.508 538.748 242.064 545.014C242.112 537.772 242.18 530.53 242.064 523.29C196.3 515.276 137.232 460.646 115.188 422.152C81.27 362.928 75.622 290.512 97.766 226.23C101.258 216.092 105.3 204.776 111.184 195.774L111.6 196.616C109.782 201.588 105.454 207.532 104.106 211.954C103.574 213.698 104.936 241.27 105.462 242.65C110.208 236.634 110.846 217.248 117.612 213.816C79.052 301.14 98.93 404.914 171.432 468.812C319.296 599.128 542.406 479.256 529.624 290.322C524.984 221.74 494.934 174.576 443.992 130.178Z" fill="url(#paint0_linear_90_20)"/>
<path d="M430.766 739.7L430.886 739.786C431.396 741.416 430.958 743.278 430.766 744.972C430.082 742.984 429.364 741.566 430.766 739.7Z" fill="#8B5CF6"/>
<path d="M196.914 748.132C198.298 747.568 199.696 746.61 201.154 747.006L200.684 748.132C199.796 748.402 198.902 748.646 198.004 748.886L196.914 748.132Z" fill="#8B5CF6"/>
<path d="M421.36 685.902L421.774 685.206C424.026 702.836 420.29 727.598 422.514 748.722L423.234 749.214L423.002 749.67C425 750.514 427.006 751.342 428.974 752.252L429.128 752.688C427.918 752.798 426.708 752.742 425.522 752.98L425.15 752.624C424.5 753.768 424.412 753.812 424.582 755.102L426.668 756.91L426.544 757.49C417.932 755.316 421.316 735.712 421.316 729.186L421.36 685.902Z" fill="#8B5CF6"/>
<path d="M264.738 433.49C274.378 432.664 280.502 449.422 291.298 454.156C337.098 474.238 349.156 437.74 359.366 434.158C368.308 431.02 368.656 440.354 365.308 446.962C328.45 502.666 242.342 450.658 264.738 433.49Z" fill="#CB2FC0"/>
<path d="M192.322 224.704C214.292 222.38 239.142 230.962 255.192 246.002C258.742 249.328 286.62 279.25 266.206 277.196C261.112 276.684 256.798 268.088 253.808 264.326C237.756 243.266 209.826 235.358 184.248 239.02C179.766 239.662 175.438 241.784 170.962 242.214C164.794 242.804 160.564 235.642 164.848 230.718C169.07 225.864 185.692 225.296 192.322 224.704Z" fill="#DB2777"/>
<path d="M427.988 224.704C435.67 224.058 458.37 225.678 464.392 230.856C468.728 234.584 464.802 242.4 459.424 242.42C455.008 242.434 450.122 240.046 445.728 239.228C422.612 234.926 394.876 241.668 378.604 258.84C375.146 262.602 366.492 276.392 362.256 277.178C346.518 280.094 359.018 260.118 363.178 255.152C380.172 234.868 402.296 226.832 427.988 224.704Z" fill="#DB2777"/>
<path d="M189.322 285.704C227.072 282.742 268.478 302.968 285.922 336.914C305.42 374.854 285.32 378.554 258.56 391.644L257.87 391.986C231.678 393.53 204.55 390.374 183.042 374.012C149.594 348.566 137.12 292.002 189.322 285.704ZM189.322 299.694C134.702 307.794 187.682 394.976 257.87 377.116C272.32 373.422 282.35 368.508 277.54 352.332C272.502 335.392 258.206 319.522 242.798 311.214C231.508 305.128 201.618 295.708 189.322 299.694Z" fill="url(#paint1_linear_90_20)"/>
<path d="M224.574 328.034C238.044 327.296 234.74 352.012 230.168 356.482C216.114 358.166 215.758 331.906 224.574 328.034Z" fill="#CB2FC0"/>
<path d="M427.988 285.704C453.35 284.174 477.708 298.736 474.67 326.988C470.362 367.028 423.19 396.362 385.228 391.986C338.036 390.126 319.608 362.988 352.388 321.904C372.024 297.292 397.82 289.12 427.988 285.704ZM427.988 299.694C402.616 302.626 379.94 308.938 363.38 329.848C339.046 360.58 347.808 378.114 385.228 378.988C458.598 381.842 489.486 292.222 427.988 299.694Z" fill="#CB2FC0"/>
<path d="M398.02 328.034C400.256 327.706 404.81 326.796 406.414 328.464C409.662 331.838 409.88 352.34 404.648 356.482C392.636 358.67 392.226 332.008 398.02 328.034Z" fill="#CB2FC0"/>
</g>
<defs>
<filter id="filter0_d_90_20" x="0.340332" y="0.424805" width="628.044" height="765.546" filterUnits="userSpaceOnUse" color-interpolation-filters="sRGB">
<feFlood flood-opacity="0" result="BackgroundImageFix"/>
<feColorMatrix in="SourceAlpha" type="matrix" values="0 0 0 0 0 0 0 0 0 0 0 0 0 0 0 0 0 0 127 0" result="hardAlpha"/>
<feOffset dy="4"/>
<feGaussianBlur stdDeviation="2"/>
<feComposite in2="hardAlpha" operator="out"/>
<feColorMatrix type="matrix" values="0 0 0 0 0 0 0 0 0 0 0 0 0 0 0 0 0 0 0.25 0"/>
<feBlend mode="normal" in2="BackgroundImageFix" result="effect1_dropShadow_90_20"/>
<feBlend mode="normal" in="SourceGraphic" in2="effect1_dropShadow_90_20" result="shape"/>
</filter>
<linearGradient id="paint0_linear_90_20" x1="301.232" y1="171.612" x2="324.799" y2="760.669" gradientUnits="userSpaceOnUse">
<stop stop-color="#F527A0"/>
<stop offset="1" stop-color="#8242F4"/>
</linearGradient>
<linearGradient id="paint1_linear_90_20" x1="196.7" y1="280.545" x2="246.209" y2="395.923" gradientUnits="userSpaceOnUse">
<stop stop-color="#E633A1"/>
<stop offset="1" stop-color="#C32CCA"/>
</linearGradient>
</defs>
</svg>
